<svg width="208.000000" height="139.000000" viewBox="0 0 208 139" fill="none" xmlns="http://www.w3.org/2000/svg" xmlns:xlink="http://www.w3.org/1999/xlink">
	<desc>
			Created with Pixso.
	</desc>
	<defs/>
	<circle id="Эллипс 1" cx="98.500000" cy="69.500000" r="69.500000" fill="#C7DB00" fill-opacity="1.000000"/>
	<path id="Go to Eat" d="M36.48 65.55L30.55 65.55L30.55 73.75Q30.33 73.87 30.1 73.98Q28.04 74.96 25.51 74.96Q23.07 74.96 21.12 73.97Q20.96 73.9 20.82 73.81Q19.74 73.22 18.9 72.37Q18.15 71.61 17.59 70.64Q17.46 70.4 17.34 70.16Q16.43 68.3 16.43 65.99Q16.43 63.56 17.42 61.64Q17.5 61.47 17.59 61.31Q18.16 60.32 18.94 59.55Q19.76 58.73 20.83 58.16Q20.86 58.14 20.89 58.13Q22.95 57.04 25.59 57.04Q27.55 57.04 29.24 57.71Q31.22 58.49 32.84 60.19L37 56.35Q36.37 55.62 35.64 55Q34.03 53.62 31.96 52.76Q28.96 51.52 25.28 51.52Q21.27 51.52 17.99 53.06Q17.66 53.22 17.35 53.38Q15.2 54.52 13.63 56.19Q12.62 57.25 11.85 58.54Q11.41 59.27 11.07 60.04Q9.88 62.75 9.88 65.99Q9.88 69.2 11.05 71.9Q11.4 72.7 11.85 73.45Q12.67 74.82 13.75 75.94Q15.27 77.52 17.31 78.62Q17.65 78.8 18 78.96Q21.22 80.47 25.15 80.47Q25.69 80.47 26.22 80.45Q28.73 80.31 31.2 79.56Q34.19 78.64 36.48 76.92L36.48 65.55ZM155.92 80L155.92 74.8L140.67 74.8L140.67 68.32L153.68 68.32L153.68 63.28L140.67 63.28L140.67 57.19L155.4 57.19L155.4 52L134.24 52L134.24 80L155.92 80ZM91.18 79.98Q92.51 79.63 93.43 78.96L91.75 74.56Q91.54 74.72 91.3 74.86Q90.41 75.36 89.23 75.36Q88.17 75.36 87.5 74.84Q87.37 74.74 87.25 74.61Q87.23 74.59 87.21 74.57Q86.56 73.83 86.56 72.51L86.56 63.75L91.92 63.75L91.92 58.96L86.56 58.96L86.56 53.72L80.32 53.72L80.32 58.96L77 58.96L77 63.75L80.32 63.75L80.32 72.59Q80.32 76 82.01 77.93Q82.2 78.15 82.42 78.35Q82.48 78.41 82.54 78.47Q84.63 80.32 88.35 80.32Q89.84 80.32 91.18 79.98ZM196.78 79.98Q198.12 79.63 199.03 78.96L197.35 74.56Q197.14 74.72 196.9 74.86Q196.01 75.36 194.83 75.36Q193.77 75.36 193.1 74.84Q192.97 74.74 192.85 74.61Q192.83 74.59 192.81 74.57Q192.16 73.83 192.16 72.51L192.16 63.75L197.52 63.75L197.52 58.96L192.16 58.96L192.16 53.72L185.92 53.72L185.92 58.96L182.6 58.96L182.6 63.75L185.92 63.75L185.92 72.59Q185.92 76 187.61 77.93Q187.8 78.15 188.02 78.35Q188.08 78.41 188.14 78.47Q190.23 80.32 193.96 80.32Q195.44 80.32 196.78 79.98ZM46.45 79.04Q49.05 80.32 52.27 80.32Q55.62 80.32 58.26 78.95Q58.31 78.93 58.35 78.9Q60.01 78.02 61.23 76.72Q61.98 75.92 62.55 74.96Q62.88 74.42 63.14 73.84Q64.08 71.75 64.08 69.23Q64.08 66.72 63.14 64.62Q62.88 64.05 62.55 63.51Q61.97 62.53 61.2 61.72Q60 60.44 58.35 59.58Q58.31 59.55 58.26 59.53Q55.62 58.16 52.27 58.16Q49.05 58.16 46.45 59.43Q46.31 59.5 46.17 59.58Q44.51 60.45 43.29 61.74Q42.53 62.54 41.95 63.51Q41.64 64.03 41.39 64.58Q40.43 66.69 40.43 69.23Q40.43 71.78 41.39 73.89Q41.64 74.44 41.95 74.96Q42.52 75.91 43.27 76.7Q44.49 78.01 46.17 78.9Q46.31 78.98 46.45 79.04ZM100.69 79.04Q103.29 80.32 106.51 80.32Q109.86 80.32 112.5 78.95Q112.55 78.93 112.59 78.9Q114.25 78.02 115.47 76.72Q116.22 75.92 116.79 74.96Q117.12 74.42 117.38 73.84Q118.32 71.75 118.32 69.23Q118.32 66.72 117.38 64.62Q117.12 64.05 116.79 63.51Q116.21 62.53 115.44 61.72Q114.24 60.44 112.59 59.58Q112.55 59.55 112.5 59.53Q109.86 58.16 106.51 58.16Q103.29 58.16 100.69 59.43Q100.55 59.5 100.41 59.58Q98.75 60.45 97.53 61.74Q96.77 62.54 96.19 63.51Q95.88 64.03 95.63 64.58Q94.67 66.69 94.67 69.23Q94.67 71.78 95.63 73.89Q95.88 74.44 96.19 74.96Q96.76 75.91 97.51 76.7Q98.73 78.01 100.41 78.9Q100.55 78.98 100.69 79.04ZM176.83 60.54Q174.16 58.16 169.16 58.16Q167.26 58.16 165.43 58.52Q164.76 58.66 164.1 58.84Q161.64 59.52 159.87 60.76L162.12 65.11Q163.28 64.19 164.94 63.66Q166.05 63.29 167.18 63.17Q167.75 63.11 168.32 63.11Q170.8 63.11 172.04 64.21Q172.3 64.44 172.5 64.71Q173.28 65.74 173.28 67.36L168.32 67.36Q163.59 67.36 161.34 69.08Q160.37 69.82 159.81 70.79Q159.08 72.08 159.08 73.79Q159.08 75.12 159.55 76.24Q159.75 76.72 160.04 77.16Q160.13 77.31 160.24 77.45Q161.17 78.72 162.81 79.48Q164.64 80.32 167.12 80.32Q170.95 80.32 172.85 78.4Q173.33 77.92 173.68 77.32L173.68 80L179.52 80L179.52 67.72Q179.52 63.44 177.39 61.09Q177.13 60.8 176.83 60.54ZM54.92 74.57Q53.76 75.19 52.27 75.19Q50.82 75.19 49.68 74.6Q48.93 74.22 48.32 73.58Q48.04 73.29 47.81 72.97Q46.75 71.47 46.75 69.23Q46.75 67.02 47.79 65.53Q48.03 65.2 48.32 64.9Q48.94 64.25 49.7 63.86Q50.84 63.28 52.27 63.28Q53.74 63.28 54.89 63.89Q55.62 64.27 56.22 64.9Q56.48 65.17 56.7 65.48Q57.76 66.98 57.76 69.23Q57.76 71.51 56.68 73.02Q56.47 73.31 56.22 73.58Q55.63 74.19 54.92 74.57ZM109.16 74.57Q108 75.19 106.51 75.19Q105.06 75.19 103.92 74.6Q103.17 74.22 102.56 73.58Q102.28 73.29 102.05 72.97Q100.99 71.47 100.99 69.23Q100.99 67.02 102.03 65.53Q102.27 65.2 102.56 64.9Q103.18 64.25 103.94 63.86Q105.08 63.28 106.51 63.28Q107.98 63.28 109.13 63.89Q109.86 64.27 110.46 64.9Q110.72 65.17 110.94 65.48Q112 66.98 112 69.23Q112 71.51 110.92 73.02Q110.71 73.31 110.46 73.58Q109.87 74.19 109.16 74.57ZM171.08 75.61Q170 76.12 168.68 76.12Q167.04 76.12 166.09 75.41Q165.65 75.08 165.42 74.65Q165.15 74.15 165.15 73.51Q165.15 72.75 165.5 72.22Q166.31 70.99 168.99 70.99L173.28 70.99L173.28 73.2Q172.95 74.1 172.34 74.72Q171.97 75.1 171.51 75.38Q171.3 75.5 171.08 75.61Z" fill="#000000" fill-opacity="1.000000" fill-rule="evenodd"/>
</svg>
