<svg width="16.000000" height="16.000000" viewBox="0 0 16 16" fill="none" xmlns="http://www.w3.org/2000/svg" xmlns:xlink="http://www.w3.org/1999/xlink">
	<desc>
			Created with Pixso.
	</desc>
	<defs/>
	<circle id="Эллипс 1" cx="8.000000" cy="8.000000" r="8.000000" fill="#882B2B" fill-opacity="1.000000"/>
	<path id="GO to EAT" d="M4.63 7.77L4.33 7.77L4.33 8.18Q4.32 8.19 4.31 8.19Q4.21 8.24 4.08 8.24Q3.96 8.24 3.86 8.19Q3.85 8.19 3.85 8.19Q3.79 8.16 3.75 8.11Q3.71 8.08 3.68 8.03Q3.68 8.02 3.67 8Q3.63 7.91 3.63 7.79Q3.63 7.67 3.68 7.58Q3.68 7.57 3.68 7.56Q3.71 7.51 3.75 7.47Q3.79 7.43 3.85 7.4Q3.85 7.4 3.85 7.4Q3.95 7.35 4.08 7.35Q4.18 7.35 4.27 7.38Q4.37 7.42 4.45 7.5L4.66 7.31Q4.62 7.28 4.59 7.25Q4.51 7.18 4.4 7.13Q4.25 7.07 4.07 7.07Q3.87 7.07 3.7 7.15Q3.69 7.16 3.67 7.16Q3.57 7.22 3.49 7.3Q3.44 7.36 3.4 7.42Q3.38 7.46 3.36 7.5Q3.3 7.63 3.3 7.79Q3.3 7.96 3.36 8.09Q3.38 8.13 3.4 8.17Q3.44 8.24 3.49 8.29Q3.57 8.37 3.67 8.43Q3.69 8.44 3.71 8.44Q3.87 8.52 4.06 8.52Q4.09 8.52 4.12 8.52Q4.24 8.51 4.37 8.47Q4.51 8.43 4.63 8.34L4.63 7.77ZM5.26 8.45Q5.41 8.52 5.61 8.52Q5.8 8.52 5.96 8.44Q5.98 8.44 6 8.43Q6.1 8.37 6.18 8.29Q6.23 8.23 6.27 8.17Q6.3 8.12 6.32 8.07Q6.37 7.94 6.37 7.79Q6.37 7.65 6.32 7.52Q6.3 7.47 6.27 7.42Q6.23 7.36 6.18 7.3Q6.1 7.22 6 7.17Q5.98 7.15 5.96 7.15Q5.8 7.07 5.61 7.07Q5.42 7.07 5.26 7.14Q5.24 7.15 5.21 7.17Q5.11 7.22 5.03 7.31Q4.98 7.36 4.94 7.42Q4.91 7.47 4.89 7.52Q4.84 7.64 4.84 7.79Q4.84 7.95 4.9 8.08Q4.91 8.12 4.94 8.17Q4.98 8.23 5.03 8.28Q5.11 8.37 5.21 8.43Q5.23 8.44 5.26 8.45ZM10.98 8.5L10.98 8.24L10.22 8.24L10.22 7.91L10.87 7.91L10.87 7.66L10.22 7.66L10.22 7.35L10.95 7.35L10.95 7.1L9.9 7.1L9.9 8.5L10.98 8.5ZM11.51 8.2L12.16 8.2L12.28 8.5L12.62 8.5L12 7.1L11.68 7.1L11.05 8.5L11.39 8.5L11.51 8.2ZM12.54 7.36L12.99 7.36L12.99 8.5L13.31 8.5L13.31 7.36L13.76 7.36L13.76 7.1L12.54 7.1L12.54 7.36ZM7.74 8.49Q7.81 8.48 7.85 8.44L7.77 8.22Q7.76 8.23 7.75 8.24Q7.7 8.26 7.64 8.26Q7.59 8.26 7.56 8.24Q7.55 8.23 7.55 8.23Q7.54 8.22 7.54 8.22Q7.51 8.19 7.51 8.12L7.51 7.68L7.78 7.68L7.78 7.44L7.51 7.44L7.51 7.18L7.2 7.18L7.2 7.44L7.03 7.44L7.03 7.68L7.2 7.68L7.2 8.12Q7.2 8.3 7.28 8.39Q7.29 8.4 7.3 8.41Q7.31 8.42 7.31 8.42Q7.41 8.51 7.6 8.51Q7.68 8.51 7.74 8.49ZM5.78 8.21Q5.7 8.24 5.61 8.24Q5.51 8.24 5.43 8.21Q5.41 8.2 5.38 8.19Q5.34 8.16 5.3 8.12Q5.26 8.08 5.23 8.03Q5.22 8.02 5.22 8.01Q5.17 7.91 5.17 7.79Q5.17 7.68 5.21 7.58Q5.22 7.57 5.23 7.56Q5.26 7.51 5.3 7.46Q5.34 7.43 5.38 7.4Q5.41 7.39 5.43 7.38Q5.51 7.35 5.61 7.35Q5.7 7.35 5.78 7.38Q5.81 7.39 5.83 7.4Q5.88 7.43 5.91 7.46Q5.96 7.51 5.99 7.56Q5.99 7.57 6 7.58Q6.05 7.68 6.05 7.79Q6.05 7.91 6 8.01Q5.99 8.02 5.99 8.03Q5.96 8.08 5.91 8.12Q5.88 8.16 5.83 8.19Q5.81 8.2 5.78 8.21ZM8.22 8.45Q8.35 8.51 8.51 8.51Q8.68 8.51 8.81 8.44Q8.81 8.44 8.81 8.44Q8.9 8.4 8.96 8.33Q8.99 8.29 9.02 8.24Q9.04 8.22 9.05 8.19Q9.1 8.08 9.1 7.96Q9.1 7.83 9.05 7.73Q9.04 7.7 9.02 7.67Q8.99 7.62 8.96 7.58Q8.9 7.52 8.81 7.47Q8.81 7.47 8.81 7.47Q8.68 7.4 8.51 7.4Q8.35 7.4 8.22 7.47Q8.21 7.47 8.2 7.47Q8.12 7.52 8.06 7.58Q8.02 7.62 7.99 7.67Q7.98 7.7 7.96 7.72Q7.92 7.83 7.92 7.96Q7.92 8.08 7.96 8.19Q7.98 8.22 7.99 8.24Q8.02 8.29 8.06 8.33Q8.12 8.4 8.2 8.44Q8.21 8.44 8.22 8.45ZM11.84 7.41L12.06 7.95L11.61 7.95L11.84 7.41ZM8.64 8.22Q8.58 8.25 8.51 8.25Q8.44 8.25 8.38 8.23Q8.34 8.21 8.31 8.17Q8.3 8.16 8.29 8.14Q8.23 8.07 8.23 7.96Q8.23 7.85 8.28 7.77Q8.3 7.76 8.31 7.74Q8.34 7.71 8.38 7.69Q8.44 7.66 8.51 7.66Q8.58 7.66 8.64 7.69Q8.68 7.71 8.71 7.74Q8.72 7.75 8.73 7.77Q8.78 7.84 8.78 7.96Q8.78 8.07 8.73 8.15Q8.72 8.16 8.71 8.17Q8.68 8.2 8.64 8.22Z" fill="#FFFAEF" fill-opacity="1.000000" fill-rule="evenodd"/>
</svg>
